<svg xmlns="http://www.w3.org/2000/svg" width="21" height="16.8" viewBox="0 0 21 16.8">
  <path id="Icon_awesome-photo-video" data-name="Icon awesome-photo-video" d="M19.95,0H5.25A1.05,1.05,0,0,0,4.2,1.05V4.2H9.45V2.1h6.3V12.6h4.2A1.05,1.05,0,0,0,21,11.55V1.05A1.05,1.05,0,0,0,19.95,0ZM7.613,3.38a.3.3,0,0,1-.3.3H6.333a.3.3,0,0,1-.3-.3V2.4a.3.3,0,0,1,.3-.3h.984a.3.3,0,0,1,.3.3ZM19.163,10.2a.3.3,0,0,1-.3.3h-.984a.3.3,0,0,1-.3-.3V9.22a.3.3,0,0,1,.3-.3h.984a.3.3,0,0,1,.3.3Zm0-3.412a.3.3,0,0,1-.3.3h-.984a.3.3,0,0,1-.3-.3V5.808a.3.3,0,0,1,.3-.3h.984a.3.3,0,0,1,.3.3Zm0-3.413a.3.3,0,0,1-.3.3h-.984a.3.3,0,0,1-.3-.3V2.4a.3.3,0,0,1,.3-.3h.984a.3.3,0,0,1,.3.3ZM13.65,5.25H1.05A1.05,1.05,0,0,0,0,6.3v9.45A1.05,1.05,0,0,0,1.05,16.8h12.6a1.05,1.05,0,0,0,1.05-1.05V6.3A1.05,1.05,0,0,0,13.65,5.25ZM3.15,7.35A1.05,1.05,0,1,1,2.1,8.4,1.05,1.05,0,0,1,3.15,7.35ZM12.6,14.7H2.1V13.65l2.1-2.1L5.25,12.6l4.2-4.2,3.15,3.15Z" fill="#fff"/>
</svg>
